<?xml version="1.0" encoding="iso-8859-1"?>
<!-- Generator: Adobe Illustrator 19.0.0, SVG Export Plug-In . SVG Version: 6.00 Build 0)  -->
<svg version="1.1" id="Layer_1" xmlns="http://www.w3.org/2000/svg" xmlns:xlink="http://www.w3.org/1999/xlink" x="0px" y="0px"
	 viewBox="0 0 512.001 512.001" style="enable-background:new 0 0 512.001 512.001;" xml:space="preserve">
<g>
	<g>
		<path d="M509.998,284.707c-24.286-28.766-47.326-40.627-68.565-35.345c-22.861,5.743-41.805,31.522-56.533,76.834
			C369.36,196.284,321.121,25.575,175.047,25.575c-1.51,0-3.029,0.017-4.557,0.051c-4.668,0.111-8.388,3.959-8.329,8.636
			c0.06,4.668,3.857,8.431,8.533,8.431c14.353,0,26.368,5.419,36.753,16.546c32.367,34.697,46.336,123.563,39.851,251.64
			C164.679,196.336,9.611,204.784,7.999,204.894c-4.668,0.299-8.226,4.301-7.987,8.969c0.247,4.676,4.574,8.329,8.883,8.073
			c0.265-0.043,26.795-0.794,54.758,26.018c29.09,27.887,63.778,90.419,63.778,229.939c0,4.71,3.814,8.533,8.533,8.533h333.372
			c2.432,0,4.753-1.041,6.366-2.85c1.621-1.818,2.389-4.241,2.108-6.656c-18.91-165.009,2.688-183.902,7.202-186.018
			c4.173-1.954,10.726,3.55,12.211,5.12c3.149,3.396,8.439,3.644,11.904,0.572C512.592,293.53,512.976,288.248,509.998,284.707z"/>
	</g>
</g>
<g>
</g>
<g>
</g>
<g>
</g>
<g>
</g>
<g>
</g>
<g>
</g>
<g>
</g>
<g>
</g>
<g>
</g>
<g>
</g>
<g>
</g>
<g>
</g>
<g>
</g>
<g>
</g>
<g>
</g>
</svg>
